<?xml version="1.0" encoding="UTF-8" standalone="no"?>
<!-- Created with Inkscape (http://www.inkscape.org/) -->

<svg
   width="150mm"
   height="30mm"
   viewBox="0 0 150 30"
   version="1.1"
   id="svg5"
   sodipodi:docname="logo-14-2.svg"
   inkscape:version="1.1 (c68e22c387, 2021-05-23)"
   xmlns:inkscape="http://www.inkscape.org/namespaces/inkscape"
   xmlns:sodipodi="http://sodipodi.sourceforge.net/DTD/sodipodi-0.dtd"
   xmlns="http://www.w3.org/2000/svg"
   xmlns:svg="http://www.w3.org/2000/svg">
  <sodipodi:namedview
     id="namedview7"
     pagecolor="#ffffff"
     bordercolor="#999999"
     borderopacity="1"
     inkscape:pageshadow="0"
     inkscape:pageopacity="0"
     inkscape:pagecheckerboard="0"
     inkscape:document-units="mm"
     showgrid="false"
     inkscape:zoom="1"
     inkscape:cx="317.5"
     inkscape:cy="19.5"
     inkscape:window-width="1366"
     inkscape:window-height="705"
     inkscape:window-x="-8"
     inkscape:window-y="-8"
     inkscape:window-maximized="1"
     inkscape:current-layer="layer1" />
  <defs
     id="defs2" />
  <g
     inkscape:label="Шар 1"
     inkscape:groupmode="layer"
     id="layer1">
    <g
       aria-label="INTERIO"
       transform="matrix(1.2553421,0,0,1.013149,-0.79063448,-0.72812524)"
       id="text1508"
       style="font-weight:bold;font-size:34.6806px;line-height:1.25;font-family:Calibri;-inkscape-font-specification:'Calibri, Bold';stroke-width:0.867011">
      <path
         d="m 8.0530977,25.95812 q 0,0.169338 -0.1185372,0.30481 -0.1016034,0.135471 -0.3556117,0.22014 -0.2540083,0.08467 -0.6773554,0.135471 -0.4233472,0.0508 -1.0837687,0.0508 -0.6434877,0 -1.0837688,-0.0508 Q 4.3107088,26.567739 4.0567005,26.48307 3.8026922,26.398401 3.684155,26.26293 3.5825517,26.127458 3.5825517,25.95812 V 5.2649105 q 0,-0.1693389 0.1016033,-0.30481 Q 3.8026922,4.8246294 4.0567005,4.73996 4.3276427,4.6552906 4.7509898,4.6044889 5.174337,4.5536873 5.8178247,4.5536873 q 0.6604215,0 1.0837687,0.050802 0.4233471,0.050802 0.6773554,0.1354711 0.2540083,0.084669 0.3556117,0.2201405 0.1185372,0.1354711 0.1185372,0.30481 z"
         id="path10855" />
      <path
         d="m 30.89691,25.009822 q 0,0.389479 -0.135471,0.694289 -0.135471,0.30481 -0.372545,0.508017 -0.220141,0.203207 -0.541885,0.30481 -0.304809,0.08467 -0.626553,0.08467 H 27.32386 q -0.592686,0 -1.032967,-0.118537 -0.423347,-0.118537 -0.795892,-0.423347 -0.355612,-0.321744 -0.69429,-0.846694 -0.338677,-0.541885 -0.762025,-1.388579 L 18.585975,13.579449 q -0.474149,-0.91443 -0.965231,-1.964331 -0.491083,-1.066835 -0.880563,-2.0659343 h -0.03387 q 0.06774,1.2192403 0.101603,2.4384793 0.03387,1.202306 0.03387,2.489282 v 11.464241 q 0,0.169339 -0.101604,0.30481 -0.08467,0.135471 -0.321743,0.237074 -0.220141,0.08467 -0.60962,0.135471 -0.38948,0.0508 -0.9991,0.0508 -0.592686,0 -0.982165,-0.0508 -0.389479,-0.0508 -0.60962,-0.135471 -0.22014,-0.101603 -0.30481,-0.237074 -0.08467,-0.135471 -0.08467,-0.30481 V 6.2470759 q 0,-0.7958927 0.457215,-1.1853721 0.474148,-0.4064132 1.151504,-0.4064132 h 2.387678 q 0.643488,0 1.083769,0.1185372 0.440281,0.1016033 0.778958,0.3556116 0.355612,0.2540083 0.660422,0.7112232 0.30481,0.4402811 0.626554,1.1007026 l 4.267339,8.0097278 q 0.372546,0.728158 0.728157,1.439381 0.372546,0.694289 0.711223,1.405512 0.338678,0.69429 0.660422,1.371645 0.321744,0.677356 0.626554,1.354711 h 0.01693 q -0.0508,-1.185372 -0.08467,-2.472347 -0.01693,-1.286976 -0.01693,-2.455414 V 5.3157121 q 0,-0.1693388 0.101604,-0.3048099 0.101603,-0.1354711 0.338677,-0.2370744 0.237075,-0.1016033 0.626554,-0.1354711 0.38948,-0.050802 0.9991,-0.050802 0.575752,0 0.965231,0.050802 0.389479,0.033868 0.592686,0.1354711 0.220141,0.1016033 0.30481,0.2370744 0.08467,0.1354711 0.08467,0.3048099 z"
         id="path10857" />
      <path
         d="m 50.252342,6.4841503 q 0,0.4910827 -0.0508,0.8466943 -0.03387,0.3386777 -0.118537,0.5588183 -0.08467,0.2032066 -0.220141,0.3048099 -0.118537,0.1016033 -0.270942,0.1016033 H 44.105341 V 25.95812 q 0,0.169338 -0.118537,0.30481 -0.101603,0.135471 -0.355612,0.22014 -0.254008,0.08467 -0.694289,0.135471 -0.423347,0.0508 -1.066835,0.0508 -0.643488,0 -1.083769,-0.0508 -0.423347,-0.0508 -0.677355,-0.135471 -0.254008,-0.08467 -0.372546,-0.22014 -0.101603,-0.135472 -0.101603,-0.30481 V 8.2960761 h -5.486579 q -0.169339,0 -0.287876,-0.1016033 -0.118537,-0.1016033 -0.203207,-0.3048099 -0.08467,-0.2201406 -0.135471,-0.5588183 -0.03387,-0.3556116 -0.03387,-0.8466943 0,-0.5080166 0.03387,-0.8636282 0.0508,-0.3556116 0.135471,-0.5588183 0.08467,-0.2201405 0.203207,-0.3048099 0.118537,-0.1016033 0.287876,-0.1016033 H 49.59192 q 0.152405,0 0.270942,0.1016033 0.135472,0.084669 0.220141,0.3048099 0.08467,0.2032067 0.118537,0.5588183 0.0508,0.3556116 0.0508,0.8636282 z"
         id="path10859" />
      <path
         d="m 65.83152,24.823549 q 0,0.491083 -0.0508,0.829761 -0.03387,0.321743 -0.118537,0.52495 -0.08467,0.203207 -0.220141,0.30481 -0.118537,0.08467 -0.270942,0.08467 H 54.164072 q -0.558818,0 -0.948297,-0.321743 -0.372546,-0.338678 -0.372546,-1.083769 V 6.0608031 q 0,-0.745091 0.372546,-1.0668348 0.389479,-0.3386777 0.948297,-0.3386777 h 10.939291 q 0.152405,0 0.270942,0.084669 0.118537,0.084669 0.203207,0.30481 0.08467,0.2032066 0.118537,0.5418843 0.0508,0.3217439 0.0508,0.8297604 0,0.4741489 -0.0508,0.8128266 -0.03387,0.3217438 -0.118537,0.5249505 -0.08467,0.2032066 -0.203207,0.3048099 -0.118537,0.08467 -0.270942,0.08467 h -7.823456 v 5.3511077 h 6.62115 q 0.152405,0 0.270942,0.101604 0.135471,0.08467 0.22014,0.287876 0.08467,0.186272 0.118538,0.52495 0.0508,0.321744 0.0508,0.795893 0,0.491082 -0.0508,0.812826 -0.03387,0.321744 -0.118538,0.524951 -0.08467,0.186273 -0.22014,0.270942 -0.118537,0.08467 -0.270942,0.08467 h -6.62115 v 6.180869 h 7.891191 q 0.152405,0 0.270942,0.101603 0.135472,0.08467 0.220141,0.287876 0.08467,0.203207 0.118537,0.541885 0.0508,0.321743 0.0508,0.812826 z"
         id="path10861" />
      <path
         d="m 86.01671,25.991987 q 0,0.186273 -0.06773,0.321744 -0.06774,0.118537 -0.321744,0.203207 -0.254009,0.08467 -0.745091,0.118537 -0.491083,0.03387 -1.337777,0.03387 -0.711224,0 -1.134571,-0.03387 -0.423347,-0.03387 -0.677355,-0.118537 -0.237075,-0.101603 -0.338678,-0.237075 -0.101603,-0.152405 -0.169339,-0.355611 L 79.260089,21.030359 Q 78.904478,20.200598 78.5658,19.557111 78.227122,18.913623 77.803775,18.490276 77.397362,18.049995 76.855478,17.829854 76.313593,17.609714 75.60237,17.609714 h -1.388579 v 8.348406 q 0,0.169338 -0.118537,0.30481 -0.101603,0.135471 -0.355611,0.22014 -0.254009,0.08467 -0.677356,0.135471 -0.423347,0.0508 -1.083769,0.0508 -0.643487,0 -1.083768,-0.0508 -0.423348,-0.0508 -0.677356,-0.135471 -0.254008,-0.08467 -0.355611,-0.22014 -0.101604,-0.135472 -0.101604,-0.30481 V 6.0608031 q 0,-0.745091 0.372546,-1.0668348 0.389479,-0.3386777 0.948297,-0.3386777 h 5.672852 q 0.863628,0 1.422447,0.033868 0.558818,0.033868 1.016033,0.08467 1.320843,0.1862727 2.370744,0.6434877 1.066835,0.4572149 1.794992,1.2023059 0.745091,0.7281571 1.13457,1.7441903 0.38948,0.9990993 0.38948,2.3030085 0,1.100703 -0.287876,2.015133 -0.270943,0.897496 -0.812827,1.608719 -0.541884,0.711223 -1.337777,1.236174 -0.795893,0.52495 -1.811926,0.846694 0.491083,0.237074 0.91443,0.575752 0.440281,0.338678 0.812827,0.82976 0.389479,0.474149 0.728157,1.100703 0.338677,0.60962 0.660421,1.388579 l 1.845794,4.318141 q 0.254008,0.643487 0.338678,0.948297 0.08467,0.287876 0.08467,0.457215 z M 80.276123,11.124035 q 0,-1.083769 -0.491083,-1.8288596 Q 79.293957,8.5500844 78.176321,8.2452745 77.837643,8.160605 77.397362,8.1098034 76.974015,8.0590017 76.21199,8.0590017 h -1.998199 v 6.2147363 h 2.269141 q 0.948298,0 1.659521,-0.220141 0.711223,-0.237074 1.185372,-0.643487 0.474149,-0.423347 0.711223,-0.999099 0.237075,-0.575753 0.237075,-1.286976 z"
         id="path10863" />
      <path
         d="m 93.755498,25.95812 q 0,0.169338 -0.118537,0.30481 -0.101604,0.135471 -0.355612,0.22014 -0.254008,0.08467 -0.677355,0.135471 -0.423348,0.0508 -1.083769,0.0508 -0.643488,0 -1.083769,-0.0508 -0.423347,-0.0508 -0.677355,-0.135471 -0.254009,-0.08467 -0.372546,-0.22014 -0.101603,-0.135472 -0.101603,-0.30481 V 5.2649105 q 0,-0.1693389 0.101603,-0.30481 0.118537,-0.1354711 0.372546,-0.2201405 0.270942,-0.084669 0.694289,-0.1354711 0.423347,-0.050802 1.066835,-0.050802 0.660421,0 1.083769,0.050802 0.423347,0.050802 0.677355,0.1354711 0.254008,0.084669 0.355612,0.2201405 0.118537,0.1354711 0.118537,0.30481 z"
         id="path10865" />
      <path
         d="m 118.2419,15.357507 q 0,2.726355 -0.67736,4.876959 -0.67735,2.150604 -2.01513,3.657719 -1.33778,1.490182 -3.31904,2.286075 -1.96433,0.778959 -4.55522,0.778959 -2.55701,0 -4.47054,-0.660422 -1.8966,-0.677355 -3.16664,-2.049 -1.270041,-1.371645 -1.913528,-3.488381 -0.626554,-2.116735 -0.626554,-5.01243 0,-2.65862 0.677355,-4.775356 0.677356,-2.1336695 2.015137,-3.6238515 1.33777,-1.490182 3.3021,-2.2860747 1.98127,-0.7958926 4.58909,-0.7958926 2.48928,0 4.38587,0.6604216 1.91353,0.6604215 3.18357,2.0320663 1.28698,1.3716448 1.93047,3.4714469 0.66042,2.082868 0.66042,4.927761 z m -4.67375,0.237074 q 0,-1.727256 -0.27095,-3.132769 -0.27094,-1.422446 -0.93136,-2.421546 -0.64349,-1.0160328 -1.72726,-1.5579171 -1.08377,-0.5588183 -2.70942,-0.5588183 -1.64259,0 -2.74329,0.6265538 -1.1007,0.6096199 -1.77806,1.6425866 -0.67735,1.032967 -0.96523,2.421546 -0.27094,1.371645 -0.27094,2.912629 0,1.794992 0.27094,3.234372 0.27094,1.422446 0.91443,2.43848 0.64349,1.016033 1.72726,1.557917 1.08377,0.524951 2.72635,0.524951 1.64259,0 2.74329,-0.60962 1.10071,-0.60962 1.77806,-1.659521 0.67736,-1.049901 0.9483,-2.43848 0.28788,-1.405512 0.28788,-2.980364 z"
         id="path10867" />
    </g>
  </g>
</svg>
